<svg xmlns="http://www.w3.org/2000/svg" fill="none" viewBox="0 0 24 24" id="Api--Streamline-Sharp-Material" height="24" width="24">
  <desc>
    Api Streamline Icon: https://streamlinehq.com
  </desc>
  <path fill="#ffffff" d="M12 14.625 9.375 12 12 9.375 14.625 12 12 14.625Zm-2.125 -7.35L7.8 5.2 12 1l4.2 4.2 -2.075 2.075L12 5.15l-2.125 2.125ZM5.2 16.2 1 12l4.2 -4.2 2.075 2.075L5.15 12l2.125 2.125 -2.075 2.075Zm13.6 0 -2.075 -2.075L18.85 12l-2.125 -2.125 2.075 -2.075L23 12l-4.2 4.2ZM12 23l-4.2 -4.2 2.075 -2.075L12 18.85l2.125 -2.125 2.075 2.075L12 23Z" stroke-width="0.5"></path>
</svg>